<svg width="1966" height="566" viewBox="0 0 1966 566" fill="none" xmlns="http://www.w3.org/2000/svg">
<path d="M974.785 111.834C996.377 111.834 1015.61 116.895 1032.48 127.016C1049.34 136.799 1062.5 150.463 1071.95 168.006C1081.39 185.212 1086.12 204.611 1086.12 226.203V232.781C1086.12 254.373 1081.39 273.94 1071.95 291.484C1062.5 309.027 1049.34 322.859 1032.48 332.98C1015.61 342.764 996.377 347.656 974.785 347.656H891.286V460H779.448V111.834H974.785ZM891.286 266.181H937.337C949.145 266.181 957.917 263.145 963.652 257.072C969.725 250.999 972.761 242.734 972.761 232.275V228.227C972.761 217.431 969.725 209.165 963.652 203.43C957.917 197.357 949.145 194.321 937.337 194.321H891.286V266.181ZM1262.38 186.73C1309.28 186.73 1346.05 198.707 1372.7 222.66C1399.69 246.276 1413.19 280.856 1413.19 326.401C1413.19 371.946 1399.69 406.696 1372.7 430.649C1346.05 454.265 1309.28 466.073 1262.38 466.073C1215.49 466.073 1178.72 454.265 1152.06 430.649C1125.41 407.033 1112.08 372.284 1112.08 326.401C1112.08 280.519 1125.41 245.77 1152.06 222.154C1178.72 198.538 1215.49 186.73 1262.38 186.73ZM1262.38 255.048C1229.32 255.048 1212.79 274.109 1212.79 312.232V341.077C1212.79 378.862 1229.32 397.755 1262.38 397.755C1295.78 397.755 1312.48 378.862 1312.48 341.077V312.232C1312.48 274.109 1295.78 255.048 1262.38 255.048ZM1599.92 186.73C1646.81 186.73 1683.59 198.707 1710.24 222.66C1737.23 246.276 1750.72 280.856 1750.72 326.401C1750.72 371.946 1737.23 406.696 1710.24 430.649C1683.59 454.265 1646.81 466.073 1599.92 466.073C1553.02 466.073 1516.25 454.265 1489.6 430.649C1462.95 407.033 1449.62 372.284 1449.62 326.401C1449.62 280.519 1462.95 245.77 1489.6 222.154C1516.25 198.538 1553.02 186.73 1599.92 186.73ZM1599.92 255.048C1566.86 255.048 1550.32 274.109 1550.32 312.232V341.077C1550.32 378.862 1566.86 397.755 1599.92 397.755C1633.32 397.755 1650.02 378.862 1650.02 341.077V312.232C1650.02 274.109 1633.32 255.048 1599.92 255.048ZM1908.1 87.0373C1915.52 87.0373 1924.8 88.0495 1935.93 90.0737C1947.07 91.7605 1956.01 93.7847 1962.76 96.1463V155.355H1939.48C1928.68 155.355 1921.26 157.379 1917.21 161.427C1913.16 165.476 1911.14 172.392 1911.14 182.176V192.803H1962.76V261.12H1911.14V460H1810.43V261.12H1772.98V192.803H1810.43V181.67C1810.43 147.258 1818.87 122.967 1835.74 108.798C1852.6 94.2908 1876.73 87.0373 1908.1 87.0373Z" fill="white"/>
<g clip-path="url(#clip0_31_182)">
<path d="M171 0H469.306C492.885 0 512 19.115 512 42.6944V469.18C512 492.76 492.885 511.875 469.306 511.875H171V0Z" fill="white"/>
<rect x="171" width="85.3889" height="85.3889" fill="black"/>
<rect x="256.389" width="85.3889" height="85.3889" fill="white"/>
<rect x="341.777" width="85.3889" height="85.3889" fill="black"/>
<rect x="427.167" y="85.3887" width="85.3889" height="85.3889" fill="black"/>
<rect x="171" y="170.778" width="85.3889" height="85.3889" fill="black"/>
<rect x="256.389" y="170.778" width="85.3889" height="85.3889" fill="white"/>
<rect x="341.777" y="170.778" width="85.3889" height="85.3889" fill="black"/>
<rect x="427.167" y="170.778" width="85.3889" height="85.3889" fill="white"/>
<rect x="171" y="256.167" width="85.3889" height="85.3889" fill="white"/>
<rect x="256.389" y="256.167" width="85.3889" height="85.3889" fill="black"/>
<rect x="341.777" y="256.167" width="85.3889" height="85.3889" fill="white"/>
<rect x="427.167" y="256.167" width="85.3889" height="85.3889" fill="black"/>
<rect x="171" y="341.556" width="85.3889" height="85.3889" fill="black"/>
<rect x="256.389" y="341.556" width="85.3889" height="85.3889" fill="white"/>
<rect x="341.777" y="341.556" width="85.3889" height="85.3889" fill="black"/>
<rect x="427.167" y="341.556" width="85.3889" height="85.3889" fill="white"/>
<rect x="171" y="426.944" width="85.3889" height="85.3889" fill="white"/>
<rect x="256.389" y="426.944" width="85.3889" height="85.3889" fill="black"/>
<rect x="341.777" y="426.944" width="85.3889" height="85.3889" fill="white"/>
<rect x="427.167" y="426.944" width="85.3889" height="85.3889" fill="black"/>
<rect x="427.167" width="85.3889" height="85.3889" fill="white"/>
<rect x="171" y="85.3887" width="85.3889" height="85.3889" fill="white"/>
<rect x="256.389" y="85.3887" width="85.3889" height="85.3889" fill="black"/>
<rect x="341.777" y="85.3887" width="85.3889" height="85.3889" fill="white"/>
</g>
<path d="M0 42.7153C0 19.1243 19.1243 0 42.7153 0H342V512H42.7153C19.1243 512 0 492.876 0 469.285V42.7153Z" fill="white"/>
<defs>
<clipPath id="clip0_31_182">
<path d="M171 0H469.306C492.885 0 512 19.115 512 42.6944V469.18C512 492.76 492.885 511.875 469.306 511.875H171V0Z" fill="white"/>
</clipPath>
</defs>
</svg>
